<?xml version="1.0" encoding="UTF-8" standalone="no"?>
<!-- Created with Inkscape (http://www.inkscape.org/) -->

<svg
   xmlns:dc="http://purl.org/dc/elements/1.1/"
   xmlns:cc="http://creativecommons.org/ns#"
   xmlns:rdf="http://www.w3.org/1999/02/22-rdf-syntax-ns#"
   xmlns:svg="http://www.w3.org/2000/svg"
   xmlns="http://www.w3.org/2000/svg"
   xmlns:xlink="http://www.w3.org/1999/xlink"
   xmlns:sodipodi="http://sodipodi.sourceforge.net/DTD/sodipodi-0.dtd"
   xmlns:inkscape="http://www.inkscape.org/namespaces/inkscape"
   width="150.08163"
   height="28.964455"
   id="svg5239"
   version="1.1"
   inkscape:version="0.48.2 r9819"
   sodipodi:docname="logo_wide.svg">
  <defs
     id="defs5241">
    <linearGradient
       inkscape:collect="always"
       xlink:href="#linearGradient3737-8"
       id="linearGradient3506"
       gradientUnits="userSpaceOnUse"
       x1="48"
       y1="20.220806"
       x2="48"
       y2="138.66119" />
    <linearGradient
       id="linearGradient3737-8">
      <stop
         id="stop3739-3"
         style="stop-color:#ffffff;stop-opacity:1"
         offset="0" />
      <stop
         id="stop3741-8"
         style="stop-color:#ffffff;stop-opacity:0"
         offset="1" />
    </linearGradient>
    <clipPath
       id="clipPath3613-4">
      <rect
         width="84"
         height="84"
         rx="6"
         ry="6"
         x="6"
         y="6"
         id="rect3615-1"
         style="fill:#ffffff;fill-opacity:1;fill-rule:nonzero;stroke:none" />
    </clipPath>
    <filter
       x="-0.192"
       y="-0.192"
       width="1.3839999"
       height="1.3839999"
       color-interpolation-filters="sRGB"
       id="filter3794-4">
      <feGaussianBlur
         id="feGaussianBlur3796-8"
         stdDeviation="5.28" />
    </filter>
    <linearGradient
       y2="138.66119"
       x2="48"
       y1="20.220806"
       x1="48"
       gradientUnits="userSpaceOnUse"
       id="linearGradient5287"
       xlink:href="#linearGradient3737-8"
       inkscape:collect="always" />
  </defs>
  <sodipodi:namedview
     id="base"
     pagecolor="#ffffff"
     bordercolor="#666666"
     borderopacity="1.0"
     inkscape:pageopacity="0.0"
     inkscape:pageshadow="2"
     inkscape:zoom="1.979899"
     inkscape:cx="-27.759363"
     inkscape:cy="90.208434"
     inkscape:document-units="px"
     inkscape:current-layer="layer1"
     showgrid="false"
     fit-margin-top="0"
     fit-margin-left="0"
     fit-margin-right="0"
     fit-margin-bottom="0"
     inkscape:window-width="1280"
     inkscape:window-height="753"
     inkscape:window-x="-2"
     inkscape:window-y="-3"
     inkscape:window-maximized="1" />
  <metadata
     id="metadata5244">
    <rdf:RDF>
      <cc:Work
         rdf:about="">
        <dc:format>image/svg+xml</dc:format>
        <dc:type
           rdf:resource="http://purl.org/dc/dcmitype/StillImage" />
        <dc:title />
      </cc:Work>
    </rdf:RDF>
  </metadata>
  <g
     inkscape:label="Layer 1"
     inkscape:groupmode="layer"
     id="layer1"
     transform="translate(-354.9709,-683.42093)">
    <g
       id="g3441"
       inkscape:export-filename="/home/aix/Design/Final_Logo/agilia_logo4.png"
       inkscape:export-xdpi="102.78267"
       inkscape:export-ydpi="102.78267"
       transform="matrix(0.82695642,0,0,0.82695642,400.24129,-8.61714)">
      <path
         id="path3050"
         style="fill:#80cc28;fill-opacity:1;fill-rule:nonzero;stroke:none"
         d="m 110.46838,860.92475 c -0.525,0.71237 -0.675,1.20112 -0.675,1.57512 0,0.82475 0.6375,1.501 1.5,1.501 0.5625,0 1.125,-0.26362 1.4625,-0.75237 l 5.5125,-7.649 5.51249,7.649 c 0.33751,0.48875 0.90001,0.75237 1.46251,0.75237 0.8625,0 1.5,-0.67625 1.5,-1.501 0,-0.374 -0.15001,-0.86275 -0.67501,-1.57512 l -5.88749,-7.72513 5.175,-6.78612 c 0.4125,-0.52488 0.5625,-0.9775 0.5625,-1.314 0,-0.82463 -0.6,-1.4985 -1.3875,-1.4985 -0.75,0 -1.0875,0.33637 -1.425,0.7485 l -4.8375,6.45025 -4.8375,-6.45025 c -0.3375,-0.41213 -0.675,-0.7485 -1.425,-0.7485 -0.7875,0 -1.3875,0.67387 -1.3875,1.4985 0,0.3365 0.15,0.78912 0.5625,1.314 l 5.175,6.78612 -5.8875,7.72513 0,0 z m -2.24625,1.314 0,-16.875 c 0,-1.08888 -0.6375,-1.76275 -1.65,-1.76275 -1.0125,0 -1.65,0.67387 -1.65,1.76275 l 0,10.8735 c 0,3.48625 -2.4375,4.91262 -4.61251,4.91262 -2.174995,0 -4.612495,-1.42637 -4.612495,-4.91262 l 0,-10.8735 c 0,-1.08888 -0.6375,-1.76275 -1.65,-1.76275 -1.0125,0 -1.65,0.67387 -1.65,1.76275 l 0,11.061 c 0,5.625 3.8625,7.57612 6.9375,7.57612 1.987495,0 4.049995,-0.75237 5.512495,-2.62737 l 0.075,0.0761 0,0.78912 c 0,1.08588 0.6375,1.76213 1.65,1.76213 1.0125,0 1.65,-0.67625 1.65,-1.76213 l 0,0 z m -35.042505,0 c 0,1.08587 0.6375,1.76212 1.65,1.76212 1.0125,0 1.65,-0.67625 1.65,-1.76212 l 0,-10.8765 c 0,-3.48638 2.4375,-4.91263 4.6125,-4.91263 2.175,0 4.6125,1.42625 4.6125,4.91263 l 0,10.8765 c 0,1.08587 0.6375,1.76212 1.65,1.76212 1.0125,0 1.65,-0.67625 1.65,-1.76212 l 0,-11.0655 c 0,-5.625 -3.8625,-7.57225 -6.9375,-7.57225 -1.9875,0 -4.05,0.7485 -5.5125,2.6235 l -0.075,-0.0746 0,-0.78612 c 0,-1.08888 -0.6375,-1.76275 -1.65,-1.76275 -1.0125,0 -1.65,0.67387 -1.65,1.76275 l 0,16.875 z m -7.26375,-23.36525 c 0,1.12637 0.9,2.02725 2.025,2.02725 1.125,0 2.025,-0.90088 2.025,-2.02725 0,-1.125 -0.9,-2.024 -2.025,-2.024 -1.125,0 -2.025,0.899 -2.025,2.024 l 0,0 z m 3.675,6.49025 c 0,-1.08888 -0.6375,-1.76275 -1.65,-1.76275 -1.0125,0 -1.65,0.67387 -1.65,1.76275 l 0,16.875 c 0,1.08587 0.6375,1.76212 1.65,1.76212 1.0125,0 1.65,-0.67625 1.65,-1.76212 l 0,-16.875 z m -6.88875,-6.7515 c 0,-1.08888 -0.6375,-1.76275 -1.65,-1.76275 -1.0125,0 -1.65,0.67387 -1.65,1.76275 l 0,23.6265 c 0,1.08587 0.6375,1.76212 1.65,1.76212 1.0125,0 1.65,-0.67625 1.65,-1.76212 l 0,-23.6265"
         inkscape:connector-curvature="0" />
      <path
         id="path3052"
         style="fill:#231f20;fill-opacity:1;fill-rule:nonzero;stroke:none"
         d="m 52.543375,855.86075 c 0,3.48875 -2.2125,5.28912 -5.025,5.28912 -2.175,0 -4.2,-0.82525 -4.2,-3.0015 0,-4.16262 4.3125,-4.16262 8.5125,-4.16262 l 0.7125,0 0,1.875 z m 3.2625,6.378 0,-13.01275 c 0,-3.67775 -2.4375,-5.625 -6.7875,-5.625 -2.7375,0 -6.6375,1.46237 -6.6375,3.5225 0,0.71237 0.4875,1.35 1.5,1.35 1.425,0 1.9875,-2.02388 5.1375,-2.02388 2.1375,0 3.525,0.82525 3.525,2.51275 l 0,2.475 -0.45,0 c -5.1,0 -12.075,0.48888 -12.075,6.711 0,4.09038 3.3,5.8525 6.9,5.8525 1.9875,0 4.05,-0.75237 5.5125,-2.62737 l 0.075,0.0761 0,0.78912 c 0,1.08588 0.6375,1.76213 1.65,1.76213 1.0125,0 1.65,-0.67625 1.65,-1.76213 l 0,0 z m -21.75,-23.36525 c 0,1.12637 0.9,2.02725 2.025,2.02725 1.125,0 2.025,-0.90088 2.025,-2.02725 0,-1.125 -0.9,-2.024 -2.025,-2.024 -1.125,0 -2.025,0.899 -2.025,2.024 l 0,0 z m 3.675,6.49025 c 0,-1.08888 -0.6375,-1.76275 -1.65,-1.76275 -1.0125,0 -1.65,0.67387 -1.65,1.76275 l 0,16.875 c 0,1.08587 0.6375,1.76212 1.65,1.76212 1.0125,0 1.65,-0.67625 1.65,-1.76212 l 0,-16.875 z m -6.8875,-6.7515 c 0,-1.08888 -0.6375,-1.76275 -1.65,-1.76275 -1.0125,0 -1.65,0.67387 -1.65,1.76275 l 0,23.6265 c 0,1.08587 0.6375,1.76212 1.65,1.76212 1.0125,0 1.65,-0.67625 1.65,-1.76212 l 0,-23.6265 z m -10.56375,0.26125 c 0,1.12637 0.9,2.02725 2.025,2.02725 1.125,0 2.025,-0.90088 2.025,-2.02725 0,-1.125 -0.9,-2.024 -2.025,-2.024 -1.125,0 -2.025,0.899 -2.025,2.024 l 0,0 z m 3.675,6.49025 c 0,-1.08888 -0.6375,-1.76275 -1.65,-1.76275 -1.0125,0 -1.65,0.67387 -1.65,1.76275 l 0,16.875 c 0,1.08587 0.6375,1.76212 1.65,1.76212 1.0125,0 1.65,-0.67625 1.65,-1.76212 l 0,-16.875 z m -20.91375,8.4375 c 0,-3.3765 1.425,-7.35163 5.475,-7.35163 4.05,0 5.475,3.97513 5.475,7.35163 0,3.3735 -1.425,7.34862 -5.475,7.34862 -4.05,0 -5.475,-3.97512 -5.475,-7.34862 l 0,0 z m 13.9125,-8.58888 c 0,-1.16262 -0.9,-1.61137 -1.5375,-1.61137 -0.9,0 -1.7625,0.44875 -1.7625,1.61137 l 0,0.89988 -0.075,0 c -0.8625,-1.20025 -2.925,-2.51125 -5.0625,-2.51125 -5.625,0 -8.775,4.91112 -8.775,10.20025 0,5.28462 3.15,10.19962 8.775,10.19962 2.25,0 4.05,-1.125 5.0625,-2.851 l 0.075,0 0,1.726 c 0,2.84863 -1.2375,6.14988 -5.4375,6.14988 -3.5625,0 -5.025,-2.32713 -6.525,-2.32713 -1.05,0 -1.3875,0.86475 -1.3875,1.53863 0,1.686 4.2375,3.63762 7.65,3.63762 5.4,0 9,-3.59912 9,-9.52387 l 0,-17.13863 z m -23.05875,10.64838 c 0,3.48875 -2.2125,5.28912 -5.025,5.28912 -2.175,0 -4.2,-0.82525 -4.2,-3.0015 0,-4.16262 4.3125,-4.16262 8.5125,-4.16262 l 0.7125,0 0,1.875 z m 3.2625,6.378 0,-13.01275 c 0,-3.67775 -2.4375,-5.625 -6.7875,-5.625 -2.7375,0 -6.6375,1.46237 -6.6375,3.5225 0,0.71237 0.4875,1.35 1.5,1.35 1.425,0 1.9875,-2.02388 5.1375,-2.02388 2.1375,0 3.525,0.82525 3.525,2.51275 l 0,2.475 -0.45,0 c -5.1,0 -12.075,0.48888 -12.075,6.711 0,4.09038 3.3,5.8525 6.9,5.8525 1.9875,0 4.05,-0.75237 5.5125,-2.62737 l 0.075,0.0761 0,0.78912 c 0,1.08588 0.6375,1.76213 1.65,1.76213 1.0125,0 1.65,-0.67625 1.65,-1.76213 l 0,0"
         inkscape:connector-curvature="0" />
      <path
         id="path3054"
         style="fill:#7dcb29;fill-opacity:1;fill-rule:nonzero;stroke:none"
         d="m -52.180375,837.83587 c 0,0 -2.563,0 -2.563,2.564 l 0,21.54338 c 0,0 0,2.5625 2.563,2.5625 l 21.545,0 c 0,0 2.5625,0 2.5625,-2.5625 l 0,-21.54338 c 0,0 0,-2.564 -2.5625,-2.564 l -21.545,0 0,0"
         inkscape:connector-curvature="0" />
      <path
         id="path3056"
         style="fill:#ffffff;fill-opacity:1;fill-rule:nonzero;stroke:none"
         d="m -45.939125,844.10587 -0.405,2.48 -2.79575,0 0.4045,-2.48 2.79625,0 0,0 z m 2.98875,0 0,-1.16012 -1.53,0 0.59875,-3.77838 -1.28375,0 -0.59875,3.77838 -2.795,0 0.615,-3.77838 -1.31875,0 -0.597625,3.77838 -1.776375,0 0,1.16012 1.617625,0 -0.40375,2.48 -1.759375,0 0,1.124 1.566,0 -0.633375,3.99125 1.30125,0 0.61525,-3.99125 2.814125,0 -0.63375,3.99125 1.30125,0 0.6325,-3.99125 1.74125,0 0,-1.124 -1.565,0 0.405,-2.48 1.6875,0 0,0"
         inkscape:connector-curvature="0" />
    </g>
  </g>
</svg>
